<svg width="24" height="24" viewBox="0 0 24 24" fill="none" xmlns="http://www.w3.org/2000/svg">
<path d="M20 12V5.74853C20 5.5894 19.9368 5.43679 19.8243 5.32426L16.6757 2.17574C16.5632 2.06321 16.4106 2 16.2515 2H4.6C4.26863 2 4 2.26863 4 2.6V21.4C4 21.7314 4.26863 22 4.6 22H11" stroke="#020E1A" stroke-width="1.5" stroke-linecap="round" stroke-linejoin="round"/>
<path d="M8 10H16M8 6H12M8 14H11" stroke="#020E1A" stroke-width="1.5" stroke-linecap="round" stroke-linejoin="round"/>
<path d="M16 2V5.4C16 5.73137 16.2686 6 16.6 6H20" stroke="#020E1A" stroke-width="1.5" stroke-linecap="round" stroke-linejoin="round"/>
<path d="M22.3053 16.0552C22.1803 15.7602 22.0253 15.4752 21.8453 15.2052C21.6653 14.9402 21.4603 14.6902 21.2353 14.4652C21.0103 14.2402 20.7603 14.0352 20.4953 13.8552C20.2253 13.6752 19.9403 13.5202 19.6453 13.3952C19.3453 13.2652 19.0253 13.1702 18.7053 13.1052C18.0503 12.9702 17.3453 12.9702 16.6903 13.1052C16.3703 13.1702 16.0553 13.2702 15.7503 13.3952C15.4553 13.5202 15.1703 13.6752 14.9003 13.8552C14.6353 14.0352 14.3853 14.2402 14.1603 14.4652C14.0753 14.5502 14.0003 14.6402 13.9203 14.7252L12.6953 13.5002V16.5002H15.6953L14.6303 15.4352C14.7053 15.3452 14.7853 15.2552 14.8703 15.1752C15.0503 14.9952 15.2503 14.8302 15.4603 14.6852C15.6753 14.5402 15.9053 14.4152 16.1403 14.3152C16.3803 14.2152 16.6353 14.1352 16.8903 14.0802C17.4153 13.9752 17.9803 13.9752 18.5053 14.0802C18.7603 14.1352 19.0153 14.2102 19.2553 14.3152C19.4903 14.4152 19.7203 14.5402 19.9353 14.6852C20.1453 14.8302 20.3453 14.9952 20.5253 15.1752C20.7053 15.3552 20.8703 15.5552 21.0153 15.7652C21.1603 15.9802 21.2853 16.2102 21.3853 16.4452C21.4853 16.6852 21.5653 16.9402 21.6203 17.1952C21.6753 17.4602 21.7003 17.7302 21.7003 18.0002C21.7023 18.5345 21.5951 19.0637 21.3853 19.5552C21.2853 19.7902 21.1603 20.0202 21.0153 20.2352C20.8703 20.4452 20.7053 20.6452 20.5253 20.8252C20.3453 21.0052 20.1453 21.1702 19.9353 21.3152C19.7203 21.4602 19.4903 21.5852 19.2553 21.6852C19.0153 21.7852 18.7603 21.8652 18.5053 21.9202C17.9803 22.0252 17.4153 22.0252 16.8903 21.9202C16.6332 21.8666 16.382 21.7879 16.1403 21.6852C15.9053 21.5852 15.6753 21.4602 15.4603 21.3152C15.2503 21.1702 15.0503 21.0052 14.8703 20.8252C14.6903 20.6452 14.5253 20.4452 14.3803 20.2352C14.2353 20.0202 14.1103 19.7902 14.0103 19.5552C13.9103 19.3152 13.8303 19.0602 13.7753 18.8052C13.7215 18.5402 13.6947 18.2705 13.6953 18.0002H12.6953C12.6953 18.3402 12.7303 18.6752 12.7953 19.0052C12.8603 19.3252 12.9603 19.6402 13.0853 19.9452C13.2103 20.2402 13.3653 20.5252 13.5453 20.7952C13.7253 21.0602 13.9303 21.3102 14.1553 21.5352C14.3803 21.7602 14.6303 21.9652 14.8953 22.1452C15.1653 22.3252 15.4503 22.4802 15.7453 22.6052C16.0453 22.7352 16.3653 22.8302 16.6853 22.8952C17.0153 22.9602 17.3503 22.9952 17.6903 22.9952C18.0303 22.9952 18.3703 22.9602 18.6953 22.8952C19.0153 22.8302 19.3303 22.7302 19.6353 22.6052C19.9303 22.4802 20.2153 22.3252 20.4853 22.1452C20.7503 21.9652 21.0003 21.7602 21.2253 21.5352C21.4503 21.3102 21.6553 21.0602 21.8353 20.7952C22.0153 20.5252 22.1703 20.2402 22.2953 19.9452C22.4253 19.6452 22.5203 19.3252 22.5853 19.0052C22.6503 18.6752 22.6853 18.3352 22.6853 18.0002C22.6853 17.6652 22.6503 17.3252 22.5853 16.9952C22.5203 16.6752 22.4203 16.3602 22.2953 16.0552H22.3053Z" fill="#020E1A"/>
<path d="M17.2002 15.5V18.5H20.2002V17.5H18.2002V15.5H17.2002Z" fill="#020E1A"/>
</svg>
